<svg xmlns="http://www.w3.org/2000/svg" viewBox="0 0 178.15 293.61"><defs><style>.cls-1{fill:#98888b;}.cls-2{fill:#73264d;}.cls-3{fill:#514155;}.cls-4{fill:#27272b;}</style></defs><title>logo-P</title><g id="Calque_2" data-name="Calque 2"><g id="logo-P"><circle class="cls-1" cx="18.46" cy="172.61" r="18.46"/><path class="cls-2" d="M87.7,0C40.72,0,0,36.41,0,95.53v26.89s0,.1,0,.15a18.41,18.41,0,0,0,36.81,0s0-.1,0-.15l0,0V90.83C36.81,56,58.73,34.46,88.1,34.46c30.15,0,53.25,20.36,53.25,53.63,0,32.9-21.93,52.86-50.9,52.86H68.51a17.2,17.2,0,0,0-17.16,16.53c0,.09-.06.19-.06.27s0,.07,0,.1,0,.22,0,.33a17.22,17.22,0,0,0,17.23,17.23H101c43.46,0,77.13-39.15,77.13-87.32C178.15,41.5,143.31,0,87.7,0Z"/><circle class="cls-3" cx="18.46" cy="216.02" r="15.38"/><circle class="cls-4" cx="18.46" cy="253.27" r="12.3"/><circle class="cls-2" cx="18.46" cy="284.38" r="9.23"/></g></g></svg>