<svg xmlns="http://www.w3.org/2000/svg" viewBox="0 0 555.59 45.72"><defs><style>.cls-1{fill:#27272b;}</style></defs><title>logo-nom</title><g id="Calque_2" data-name="Calque 2"><g id="logo-nom"><path class="cls-1" d="M18.31,11.92a14.4,14.4,0,0,1-.74,4.82,10.59,10.59,0,0,1-2,3.57,8.6,8.6,0,0,1-3,2.21,9,9,0,0,1-3.69.77H1.35V44.61H0V1.11H8.54a11.53,11.53,0,0,1,3.38.52,8.46,8.46,0,0,1,3.13,1.75A9.28,9.28,0,0,1,17.39,6.7,13,13,0,0,1,18.31,11.92ZM17,12a12.4,12.4,0,0,0-.71-4.47,8.21,8.21,0,0,0-1.87-3A7.35,7.35,0,0,0,11.8,2.86,8.14,8.14,0,0,0,9,2.33H1.35V22.06H9.16A7.14,7.14,0,0,0,12,21.47a7,7,0,0,0,2.52-1.81,9.27,9.27,0,0,0,1.78-3.15A13.69,13.69,0,0,0,17,12Z"/><path class="cls-1" d="M26.11,44.61V1.11H41.78V2.33H27.47V21.45H40.92v1.22H27.47V43.38H42.21v1.23Z"/><path class="cls-1" d="M67.77,44.61,58.62,22.67H51.74V44.61H50.38V1.11H58.9a13.35,13.35,0,0,1,3.37.46,8.34,8.34,0,0,1,3.24,1.66A9.11,9.11,0,0,1,68,6.48a12.35,12.35,0,0,1,1,5.26,13.52,13.52,0,0,1-.83,5.07A9.83,9.83,0,0,1,66,20.15,7.89,7.89,0,0,1,63.1,22a9,9,0,0,1-3.13.58l9.28,22Zm-.06-32.87a11.46,11.46,0,0,0-.77-4.52,7.61,7.61,0,0,0-2-2.89A7.58,7.58,0,0,0,62,2.8a12.48,12.48,0,0,0-3.38-.47H51.74V21.45h7.31A7.93,7.93,0,0,0,65.5,18.8,10.6,10.6,0,0,0,67.71,11.74Z"/><path class="cls-1" d="M78.77,2.33V21.45h13v1.22h-13V44.61H77.42V1.11H92.78V2.33Z"/><path class="cls-1" d="M124.67,22.86a43.43,43.43,0,0,1-.89,9.15,25.17,25.17,0,0,1-2.58,7.19,13.79,13.79,0,0,1-4.12,4.7,10,10,0,0,1-11.12,0,13.66,13.66,0,0,1-4.11-4.7A25.47,25.47,0,0,1,99.26,32a44.1,44.1,0,0,1-.89-9.15,47.39,47.39,0,0,1,.83-9.16,25.39,25.39,0,0,1,2.49-7.19,13.56,13.56,0,0,1,4.12-4.7A9.88,9.88,0,0,1,111.52.12a9.52,9.52,0,0,1,5.56,1.69,14,14,0,0,1,4.12,4.7,25.39,25.39,0,0,1,2.58,7.19A43.6,43.6,0,0,1,124.67,22.86Zm-1.35,0a44.07,44.07,0,0,0-.77-8.42,25.88,25.88,0,0,0-2.24-6.82A13.09,13.09,0,0,0,116.62,3a8.19,8.19,0,0,0-5.1-1.69A8.41,8.41,0,0,0,106.3,3a13.31,13.31,0,0,0-3.69,4.58,24.51,24.51,0,0,0-2.18,6.82,47.74,47.74,0,0,0-.7,8.42,47.31,47.31,0,0,0,.7,8.39,25.06,25.06,0,0,0,2.18,6.82,13.34,13.34,0,0,0,3.69,4.61,8.83,8.83,0,0,0,10.39,0,13.2,13.2,0,0,0,3.68-4.61,25.77,25.77,0,0,0,2.21-6.82A44.55,44.55,0,0,0,123.32,22.86Z"/><path class="cls-1" d="M151.09,44.61l-9.15-21.94h-6.88V44.61h-1.35V1.11h8.51a13.35,13.35,0,0,1,3.37.46,8.34,8.34,0,0,1,3.24,1.66,9.11,9.11,0,0,1,2.45,3.25,12.35,12.35,0,0,1,1,5.26,13.52,13.52,0,0,1-.83,5.07,9.83,9.83,0,0,1-2.12,3.34A7.89,7.89,0,0,1,146.42,22a9,9,0,0,1-3.13.58l9.28,22ZM151,11.74a11.46,11.46,0,0,0-.77-4.52,7.61,7.61,0,0,0-2-2.89,7.58,7.58,0,0,0-2.92-1.53,12.48,12.48,0,0,0-3.38-.47h-6.88V21.45h7.31a7.93,7.93,0,0,0,6.45-2.65A10.6,10.6,0,0,0,151,11.74Z"/><path class="cls-1" d="M190.24,44.61v-42h-.13L177,44.61H175.3l-13.08-42h-.13v42h-1.35V1.11h2.4l13,41.9h.13l13-41.9h2.4v43.5Z"/><path class="cls-1" d="M217.76,32.2h-15.3l-3.32,12.41h-1.35L209,1.11h2.33l10.88,43.5H220.9Zm-15-1.23h14.69L210.33,2h-.25Z"/><path class="cls-1" d="M248.24,44.61,229.93,2.7h-.12V44.61h-1.35V1.11h2.21L248.92,43H249V1.11h1.35v43.5Z"/><path class="cls-1" d="M278.44,44.12a11.17,11.17,0,0,1-5.31,1.47,10.18,10.18,0,0,1-5.93-1.75,13.94,13.94,0,0,1-4.27-4.79,25.43,25.43,0,0,1-2.62-7.19,43.11,43.11,0,0,1-.89-9,43.48,43.48,0,0,1,.89-9,25.3,25.3,0,0,1,2.62-7.22,13.78,13.78,0,0,1,4.27-4.77A10.39,10.39,0,0,1,273.13.12a11,11,0,0,1,5,1.29,9.92,9.92,0,0,1,4.21,4.43l-1.1.67a9.82,9.82,0,0,0-3.72-4,9.2,9.2,0,0,0-9.86.49,12.79,12.79,0,0,0-3.84,4.58,24.82,24.82,0,0,0-2.28,6.82,44.07,44.07,0,0,0-.77,8.42,43.67,43.67,0,0,0,.77,8.39,24.73,24.73,0,0,0,2.31,6.82,13.09,13.09,0,0,0,3.87,4.61,9,9,0,0,0,5.41,1.69,9.13,9.13,0,0,0,4.79-1.48,10.77,10.77,0,0,0,3.93-4.55L283,39A11.06,11.06,0,0,1,278.44,44.12Z"/><path class="cls-1" d="M289.66,44.61V1.11h15.66V2.33H291V21.45h13.45v1.22H291V43.38h14.74v1.23Z"/><path class="cls-1" d="M337.15,14a15.27,15.27,0,0,1-1,5.81,12.36,12.36,0,0,1-2.66,4.14,10.38,10.38,0,0,1-3.8,2.46,12.6,12.6,0,0,1-4.41.8h-5.14V44.61h-7.25V1.11h12a15.92,15.92,0,0,1,4.29.61,10.22,10.22,0,0,1,4,2.12,11.72,11.72,0,0,1,2.88,4A14.79,14.79,0,0,1,337.15,14Zm-6.94.09c0-2.32-.55-4-1.66-5.08a5.89,5.89,0,0,0-4.24-1.59h-4.18V21.14h4.18a5.49,5.49,0,0,0,4.24-1.81A7.53,7.53,0,0,0,330.21,14Z"/><path class="cls-1" d="M361.3,44.61l-6.76-18.56h-4.12V44.61H343.3V1.11h12.41a16.79,16.79,0,0,1,5,.7,9.85,9.85,0,0,1,3.9,2.25,10.63,10.63,0,0,1,2.55,3.87,15.29,15.29,0,0,1,.92,5.59,14.34,14.34,0,0,1-.64,4.45,12.47,12.47,0,0,1-1.63,3.29,9.39,9.39,0,0,1-2.18,2.18,7.56,7.56,0,0,1-2.37,1.14l7.8,20Zm-.49-30.72a8.31,8.31,0,0,0-.55-3.26,5.22,5.22,0,0,0-1.45-2,5.28,5.28,0,0,0-2-1,8.09,8.09,0,0,0-2.22-.31h-4.18v13.4h4.18A6.18,6.18,0,0,0,359.06,19,6.74,6.74,0,0,0,360.81,13.89Z"/><path class="cls-1" d="M374.82,44.61V1.11H394.3V7.62H381.88V19.17h11.5v6h-11.5V38h13v6.57Z"/><path class="cls-1" d="M422.47,44.12a13,13,0,0,1-6.73,1.6A13.18,13.18,0,0,1,409.07,44a15.33,15.33,0,0,1-5-4.77,23.78,23.78,0,0,1-3.2-7.22,34.63,34.63,0,0,1-1.14-9.15,35.1,35.1,0,0,1,1.14-9.19,23.51,23.51,0,0,1,3.23-7.25,15.21,15.21,0,0,1,5.07-4.73A13.07,13.07,0,0,1,415.74,0a14.85,14.85,0,0,1,6.58,1.38,11.78,11.78,0,0,1,4.6,4l-4.24,5.16a7.63,7.63,0,0,0-6.51-3.63,6.24,6.24,0,0,0-3.87,1.26,9.74,9.74,0,0,0-2.76,3.41,18.41,18.41,0,0,0-1.66,5.07,33.45,33.45,0,0,0-.56,6.24,32.92,32.92,0,0,0,.56,6.17,18.19,18.19,0,0,0,1.66,5.07,9.5,9.5,0,0,0,2.79,3.41,6.46,6.46,0,0,0,4,1.26,6.31,6.31,0,0,0,3.72-1.1A9.76,9.76,0,0,0,422.62,35l4.24,5A13.6,13.6,0,0,1,422.47,44.12Z"/><path class="cls-1" d="M432.09,44.61V1.11h7.37v43.5Z"/><path class="cls-1" d="M465.39,9.52a7.52,7.52,0,0,0-6-2.88,6.3,6.3,0,0,0-2,.33,5,5,0,0,0-1.78,1.08A5.18,5.18,0,0,0,454.3,10a7.48,7.48,0,0,0-.46,2.77A5.46,5.46,0,0,0,455.5,17a19.36,19.36,0,0,0,4.36,2.86c1.06.53,2.15,1.15,3.26,1.84a15.32,15.32,0,0,1,3,2.52,11.76,11.76,0,0,1,3.07,8.3,14.83,14.83,0,0,1-1,5.65,12.6,12.6,0,0,1-2.71,4.15,11.33,11.33,0,0,1-4,2.55,13.55,13.55,0,0,1-4.79.86A15.72,15.72,0,0,1,450,44.3a14.14,14.14,0,0,1-4.92-3.56l4-5.41A10.12,10.12,0,0,0,452.52,38a9.2,9.2,0,0,0,4.08,1,5.11,5.11,0,0,0,3.87-1.6A6.17,6.17,0,0,0,462,32.94a5.77,5.77,0,0,0-1.84-4.49,20.88,20.88,0,0,0-4.67-3.07,27.79,27.79,0,0,1-3.35-1.91A12.39,12.39,0,0,1,449.38,21a11.11,11.11,0,0,1-1.9-3.38,13.55,13.55,0,0,1-.71-4.64,14.2,14.2,0,0,1,1.08-5.8,11.91,11.91,0,0,1,2.82-4,11.38,11.38,0,0,1,4-2.36A13.62,13.62,0,0,1,459.12,0a15.4,15.4,0,0,1,5.93,1.08,11.26,11.26,0,0,1,4.39,3.16Z"/><path class="cls-1" d="M475.9,44.61V1.11h7.37v43.5Z"/><path class="cls-1" d="M521.55,22.8a37.74,37.74,0,0,1-1.08,9.37,23,23,0,0,1-3.1,7.22,14.73,14.73,0,0,1-4.94,4.67,13.79,13.79,0,0,1-13.12,0,14.77,14.77,0,0,1-4.92-4.67,23,23,0,0,1-3.1-7.22,37.74,37.74,0,0,1-1.08-9.37,38.34,38.34,0,0,1,1.05-9.34,22.34,22.34,0,0,1,3.07-7.19,14.29,14.29,0,0,1,4.95-4.64,14.08,14.08,0,0,1,13.15,0,14.35,14.35,0,0,1,4.94,4.64,22.82,22.82,0,0,1,3.1,7.19A37.32,37.32,0,0,1,521.55,22.8Zm-7.62,0a35.33,35.33,0,0,0-.52-6.24,19.58,19.58,0,0,0-1.54-5,9.45,9.45,0,0,0-2.52-3.35,5.32,5.32,0,0,0-3.47-1.23,5.4,5.4,0,0,0-3.53,1.23,9.45,9.45,0,0,0-2.52,3.35,18.85,18.85,0,0,0-1.51,5,37.42,37.42,0,0,0-.49,6.24,37.21,37.21,0,0,0,.49,6.23,19.31,19.31,0,0,0,1.51,5.07,9.31,9.31,0,0,0,2.52,3.38,5.68,5.68,0,0,0,7.06,0,9.31,9.31,0,0,0,2.52-3.38A19.31,19.31,0,0,0,513.44,29,37.21,37.21,0,0,0,513.93,22.8Z"/><path class="cls-1" d="M547.48,44.61,535.13,13.89H535l.12,30.72h-6.64V1.11h8.42L549.08,32h.18l-.06-30.9h6.39v43.5Z"/></g></g></svg>