<svg xmlns="http://www.w3.org/2000/svg" viewBox="0 0 555.63 437.12"><defs><style>.a{fill:none;stroke:#b3a8aa;stroke-miterlimit:10;stroke-width:0.5px;}.b{isolation:isolate;}.c{fill:#b3a8aa;}.d{fill:#856b8b;}.e{fill:#5d5d67;}.f{fill:#bb3e7d;}.g{fill:#6d6d7a;}</style></defs><line class="a" y1="417.26" x2="51.02" y2="417.26"/><line class="a" x1="504.57" y1="417.26" x2="555.59" y2="417.26"/><g class="b"><g class="b"><path class="c" d="M76,406h2.82L70,428.51H67.56L58.74,406h2.82l7.21,19.22Z"/><path class="c" d="M80,417.28a14.74,14.74,0,0,1,1.28-6.43,8.93,8.93,0,0,1,3.54-4,10.06,10.06,0,0,1,5.25-1.35,10.23,10.23,0,0,1,5.31,1.35,8.9,8.9,0,0,1,3.54,4,14.74,14.74,0,0,1,1.26,6.39A14.94,14.94,0,0,1,99,423.65a9,9,0,0,1-3.53,4A10.16,10.16,0,0,1,90.11,429a10,10,0,0,1-5.26-1.36,9,9,0,0,1-3.54-4A14.73,14.73,0,0,1,80,417.28Zm10-9.46a6.69,6.69,0,0,0-3.72,1.06,7.06,7.06,0,0,0-2.55,3.19,12.84,12.84,0,0,0-.94,5.21,13,13,0,0,0,.93,5.23,6.92,6.92,0,0,0,2.54,3.17,6.79,6.79,0,0,0,3.78,1.05,6.57,6.57,0,0,0,6.36-4.23,13.16,13.16,0,0,0,.93-5.27,12.7,12.7,0,0,0-.92-5.12,7.14,7.14,0,0,0-2.57-3.2A6.88,6.88,0,0,0,90.07,407.82Z"/><path class="c" d="M112.45,406v2.23h-4.24V423a7.34,7.34,0,0,0,.25,2.17,1.57,1.57,0,0,0,.76,1,3.55,3.55,0,0,0,1.45.24,6.64,6.64,0,0,0,1.91-.28l.38,2.36a19.26,19.26,0,0,1-2.75.29,5.92,5.92,0,0,1-3-.61,3,3,0,0,1-1.37-1.88,13.86,13.86,0,0,1-.35-3.5V408.25h-3.22V406h3.22v-5.38l2.73-1.95V406Z"/></g><g class="b"><path class="c" d="M122.73,408.25a4.35,4.35,0,0,0-2.93,1,6.33,6.33,0,0,0-1.81,2.9,13.93,13.93,0,0,0-.6,4.29v12h-2.74V406h2.57v3.58l0,0a8.77,8.77,0,0,1,2.37-3.07,5.15,5.15,0,0,1,3.22-1,7,7,0,0,1,1.7.2,9.11,9.11,0,0,1,1.78.71l-.91,2.55A6.27,6.27,0,0,0,122.73,408.25Z"/></g><g class="b"><path class="c" d="M135.58,426.73a6.49,6.49,0,0,0,3.93-1.22,6.74,6.74,0,0,0,2.4-3.38l2.7.42a9.33,9.33,0,0,1-3.48,4.83,9.81,9.81,0,0,1-5.74,1.66,9.93,9.93,0,0,1-5.38-1.42,9.29,9.29,0,0,1-3.51-4.05,14.44,14.44,0,0,1-1.22-6.12,15,15,0,0,1,1.24-6.36A9.36,9.36,0,0,1,130,407a9.74,9.74,0,0,1,5.32-1.44,9.21,9.21,0,0,1,5.57,1.59,9.06,9.06,0,0,1,3.17,4.35,18.65,18.65,0,0,1,1,6.33h-17a12.14,12.14,0,0,0,1,4.8,7.13,7.13,0,0,0,2.61,3.09A7,7,0,0,0,135.58,426.73Zm-.28-18.93a6.46,6.46,0,0,0-5.94,3.55,10.59,10.59,0,0,0-1.18,4.14h14.07a9.74,9.74,0,0,0-2.14-5.75A6.17,6.17,0,0,0,135.3,407.8Z"/><path class="c" d="M163.75,425.2h-.09v11.92h-2.73V406h2.56v3.69l.11,0a9.31,9.31,0,0,1,3.4-3.2,9.14,9.14,0,0,1,4.25-1,8.11,8.11,0,0,1,4.89,1.5,9.34,9.34,0,0,1,3.15,4.12,15.29,15.29,0,0,1,1.1,5.93,16.27,16.27,0,0,1-1.13,6.29,9.35,9.35,0,0,1-3.23,4.19,8.35,8.35,0,0,1-5,1.5,9.13,9.13,0,0,1-4.2-.9A8.39,8.39,0,0,1,163.75,425.2Zm7.1-17.38a6.41,6.41,0,0,0-4,1.26,7.63,7.63,0,0,0-2.47,3.48,14.51,14.51,0,0,0-.83,5.08,12,12,0,0,0,.91,4.89,7,7,0,0,0,2.52,3.13,6.73,6.73,0,0,0,3.78,1.07,5.81,5.81,0,0,0,3.63-1.18,7.34,7.34,0,0,0,2.37-3.35,14.25,14.25,0,0,0,.83-5.09,13.36,13.36,0,0,0-.83-4.89,7.24,7.24,0,0,0-2.35-3.25A5.71,5.71,0,0,0,170.85,407.82Z"/><path class="c" d="M202.51,428.51H199.7a10.6,10.6,0,0,1-.73-3.39l-.06,0a10.13,10.13,0,0,1-3.44,3,10,10,0,0,1-4.57,1,7.77,7.77,0,0,1-3.6-.8,5.77,5.77,0,0,1-2.4-2.21,6.17,6.17,0,0,1-.85-3.24,6.32,6.32,0,0,1,.83-3.32,6.15,6.15,0,0,1,2.65-2.27,16.29,16.29,0,0,1,4.81-1.34,34.73,34.73,0,0,0,6.44-1.42v-.83a9.79,9.79,0,0,0-.46-3.34,3.28,3.28,0,0,0-1.69-1.84,7.86,7.86,0,0,0-3.46-.61q-4.87,0-5.85,4.41l-2.7-.38a7.65,7.65,0,0,1,2.89-4.73,9.68,9.68,0,0,1,5.83-1.61,12.24,12.24,0,0,1,4.59.74,5.29,5.29,0,0,1,2.69,2.41,9.35,9.35,0,0,1,.9,4.44v8.44a31.49,31.49,0,0,0,.2,4.27A10.38,10.38,0,0,0,202.51,428.51Zm-10.42-10.28a8.39,8.39,0,0,0-4,1.61,3.74,3.74,0,0,0-1.21,3,3.68,3.68,0,0,0,1.24,2.95,5.15,5.15,0,0,0,3.49,1.07,6.86,6.86,0,0,0,1.9-.31,9.41,9.41,0,0,0,2-.89,5.89,5.89,0,0,0,1.54-1.28,9.31,9.31,0,0,0,1.08-1.58,5.78,5.78,0,0,0,.49-1.79,28.67,28.67,0,0,0,.14-3.22v-1.16a14.71,14.71,0,0,1-2.29.71C195.35,417.58,193.88,417.89,192.09,418.23Z"/><path class="c" d="M215.91,408.25a4.33,4.33,0,0,0-2.92,1,6.34,6.34,0,0,0-1.82,2.9,13.93,13.93,0,0,0-.6,4.29v12h-2.74V406h2.57v3.58l0,0a8.78,8.78,0,0,1,2.38-3.07,5.13,5.13,0,0,1,3.22-1,6.93,6.93,0,0,1,1.69.2,8.87,8.87,0,0,1,1.78.71L218.6,409A6.24,6.24,0,0,0,215.91,408.25Z"/><path class="c" d="M232,406v2.23h-4.24V423a7.4,7.4,0,0,0,.24,2.17,1.58,1.58,0,0,0,.77,1,3.52,3.52,0,0,0,1.45.24,6.64,6.64,0,0,0,1.91-.28l.38,2.36a19.23,19.23,0,0,1-2.76.29,5.92,5.92,0,0,1-3-.61,3,3,0,0,1-1.36-1.88,13.41,13.41,0,0,1-.35-3.5V408.25h-3.23V406h3.23v-5.38l2.73-1.95V406Z"/><path class="c" d="M245.18,426.73a6.49,6.49,0,0,0,3.93-1.22,6.76,6.76,0,0,0,2.41-3.38l2.69.42a9.37,9.37,0,0,1-3.47,4.83,10.82,10.82,0,0,1-11.12.24,9.29,9.29,0,0,1-3.51-4.05,14.29,14.29,0,0,1-1.23-6.12,15,15,0,0,1,1.24-6.36,9.44,9.44,0,0,1,3.51-4.14,9.69,9.69,0,0,1,5.32-1.44,9.18,9.18,0,0,1,5.56,1.59,9,9,0,0,1,3.17,4.35,18.4,18.4,0,0,1,1,6.33h-17a12.14,12.14,0,0,0,1,4.8,7.13,7.13,0,0,0,2.61,3.09A6.94,6.94,0,0,0,245.18,426.73Zm-.27-18.93a6.49,6.49,0,0,0-5.95,3.55,10.59,10.59,0,0,0-1.17,4.14h14.07a9.88,9.88,0,0,0-2.14-5.75A6.18,6.18,0,0,0,244.91,407.8Z"/><path class="c" d="M273.84,413.5a5.8,5.8,0,0,0-1.38-4.16,5.2,5.2,0,0,0-4-1.45,6.47,6.47,0,0,0-3.49,1,6.32,6.32,0,0,0-2.34,2.6,10.25,10.25,0,0,0-.78,4.49v12.57h-2.74V406h2.57v3.58a8.09,8.09,0,0,1,7.14-4.09,7.78,7.78,0,0,1,5.7,2,7.57,7.57,0,0,1,2,5.63v15.39h-2.73Z"/><path class="c" d="M300,428.51h-2.81a10.35,10.35,0,0,1-.72-3.39l-.07,0a10.13,10.13,0,0,1-3.44,3,10,10,0,0,1-4.57,1,7.77,7.77,0,0,1-3.6-.8,5.77,5.77,0,0,1-2.4-2.21,6.82,6.82,0,0,1,0-6.56A6.15,6.15,0,0,1,285,417.2a16.29,16.29,0,0,1,4.81-1.34,34.73,34.73,0,0,0,6.44-1.42v-.83a9.79,9.79,0,0,0-.46-3.34,3.25,3.25,0,0,0-1.69-1.84,7.86,7.86,0,0,0-3.46-.61q-4.87,0-5.85,4.41l-2.7-.38a7.65,7.65,0,0,1,2.89-4.73,9.68,9.68,0,0,1,5.83-1.61,12.24,12.24,0,0,1,4.59.74,5.29,5.29,0,0,1,2.69,2.41,9.35,9.35,0,0,1,.9,4.44v8.44a33.25,33.25,0,0,0,.2,4.27A10.38,10.38,0,0,0,300,428.51Zm-10.42-10.28a8.39,8.39,0,0,0-4,1.61,4.16,4.16,0,0,0,0,5.9,5.15,5.15,0,0,0,3.49,1.07,6.86,6.86,0,0,0,1.9-.31,9.41,9.41,0,0,0,2-.89,5.89,5.89,0,0,0,1.54-1.28,9.31,9.31,0,0,0,1.08-1.58,5.78,5.78,0,0,0,.49-1.79,28.67,28.67,0,0,0,.14-3.22v-1.16a14.85,14.85,0,0,1-2.28.71C292.81,417.58,291.34,417.89,289.55,418.23Z"/><path class="c" d="M305.29,401.21v-3.77H308v3.77Zm0,27.3V406H308v22.49Z"/></g><g class="b"><path class="c" d="M334.42,426.73a6.49,6.49,0,0,0,3.93-1.22,6.82,6.82,0,0,0,2.41-3.38l2.69.42a9.33,9.33,0,0,1-3.48,4.83,9.79,9.79,0,0,1-5.74,1.66,9.9,9.9,0,0,1-5.37-1.42,9.29,9.29,0,0,1-3.51-4.05,14.29,14.29,0,0,1-1.23-6.12,15,15,0,0,1,1.24-6.36,9.31,9.31,0,0,1,3.51-4.14,9.69,9.69,0,0,1,5.32-1.44,9.18,9.18,0,0,1,5.56,1.59,9.06,9.06,0,0,1,3.17,4.35,18.65,18.65,0,0,1,1,6.33h-17a12,12,0,0,0,1,4.8,7,7,0,0,0,2.6,3.09A7,7,0,0,0,334.42,426.73Zm-.28-18.93a6.7,6.7,0,0,0-3.47.91,6.78,6.78,0,0,0-2.47,2.64,10.76,10.76,0,0,0-1.18,4.14H341.1a9.88,9.88,0,0,0-2.14-5.75A6.2,6.2,0,0,0,334.14,407.8Z"/></g><g class="b"><path class="c" d="M321.16,408.25a4.35,4.35,0,0,0-2.93,1,6.33,6.33,0,0,0-1.81,2.9,13.93,13.93,0,0,0-.6,4.29v12h-2.74V406h2.57v3.58l0,0a8.88,8.88,0,0,1,2.37-3.07,5.16,5.16,0,0,1,3.23-1,7,7,0,0,1,1.69.2,9.11,9.11,0,0,1,1.78.71l-.91,2.55A6.27,6.27,0,0,0,321.16,408.25Z"/></g><g class="b"><path class="c" d="M367.57,408.25a4.33,4.33,0,0,0-2.92,1,6.25,6.25,0,0,0-1.81,2.9,13.62,13.62,0,0,0-.61,4.29v12H359.5V406h2.56v3.58l0,0a8.78,8.78,0,0,1,2.38-3.07,5.13,5.13,0,0,1,3.22-1,7.07,7.07,0,0,1,1.7.2,9.36,9.36,0,0,1,1.78.71l-.92,2.55A6.2,6.2,0,0,0,367.57,408.25Z"/></g><g class="b"><path class="c" d="M382,426.73a6.49,6.49,0,0,0,3.93-1.22,6.82,6.82,0,0,0,2.41-3.38l2.69.42a9.33,9.33,0,0,1-3.48,4.83,9.79,9.79,0,0,1-5.74,1.66,9.9,9.9,0,0,1-5.37-1.42,9.29,9.29,0,0,1-3.51-4.05,14.29,14.29,0,0,1-1.23-6.12,15,15,0,0,1,1.24-6.36,9.44,9.44,0,0,1,3.51-4.14,9.69,9.69,0,0,1,5.32-1.44,9.18,9.18,0,0,1,5.56,1.59,9,9,0,0,1,3.17,4.35,18.65,18.65,0,0,1,1,6.33h-17a12,12,0,0,0,1,4.8,7,7,0,0,0,2.6,3.09A7,7,0,0,0,382,426.73Zm-.27-18.93a6.71,6.71,0,0,0-3.48.91,6.78,6.78,0,0,0-2.47,2.64,10.76,10.76,0,0,0-1.18,4.14H388.7a9.88,9.88,0,0,0-2.14-5.75A6.19,6.19,0,0,0,381.75,407.8Zm-2.29-4.73,3.24-5.63h3.71l-4.77,5.63Z"/><path class="c" d="M403.53,426.64a6.16,6.16,0,0,0,5-2.07,9,9,0,0,0,1.77-6V406H413v22.49h-2.57v-3.6a8.31,8.31,0,0,1-3,3,8.1,8.1,0,0,1-4.12,1.08,6.94,6.94,0,0,1-7.67-7.63V406h2.73v15a6,6,0,0,0,1.3,4.14A5,5,0,0,0,403.53,426.64Z"/></g><g class="b"><path class="c" d="M423.47,407.82a6.8,6.8,0,0,0-2.56.45,3.85,3.85,0,0,0-1.75,1.26,3,3,0,0,0-.63,1.92,3.32,3.32,0,0,0,.52,1.92,4,4,0,0,0,1.78,1.27,18.53,18.53,0,0,0,3.55.92,18.65,18.65,0,0,1,4.59,1.35,6,6,0,0,1,2.53,2.1,5.77,5.77,0,0,1,.81,3.16,6.16,6.16,0,0,1-1.05,3.53,7.06,7.06,0,0,1-2.94,2.45,10,10,0,0,1-4.3.89,9.59,9.59,0,0,1-5.85-1.63,7.58,7.58,0,0,1-2.84-4.86l2.69-.42c.65,3.07,2.65,4.6,6,4.6a7.35,7.35,0,0,0,2.94-.54,4.32,4.32,0,0,0,1.9-1.51,3.71,3.71,0,0,0,.67-2.19,3.35,3.35,0,0,0-.66-2.16A4.5,4.5,0,0,0,426.8,419a24.89,24.89,0,0,0-3.86-.95,10.92,10.92,0,0,1-5.31-2.13,5.24,5.24,0,0,1-1.75-4.19,5.66,5.66,0,0,1,.93-3.19,6.3,6.3,0,0,1,2.65-2.21,9.32,9.32,0,0,1,4-.81,9.43,9.43,0,0,1,5.35,1.39,6.66,6.66,0,0,1,2.77,4.08l-2.67.38a4.11,4.11,0,0,0-1.79-2.62A6.62,6.62,0,0,0,423.47,407.82Z"/></g><g class="b"><path class="c" d="M442.67,407.82a6.8,6.8,0,0,0-2.56.45,3.85,3.85,0,0,0-1.75,1.26,3,3,0,0,0-.63,1.92,3.32,3.32,0,0,0,.52,1.92,4,4,0,0,0,1.78,1.27,18.53,18.53,0,0,0,3.55.92,18.65,18.65,0,0,1,4.59,1.35,6,6,0,0,1,2.53,2.1,5.77,5.77,0,0,1,.81,3.16,6.16,6.16,0,0,1-1.05,3.53,7.06,7.06,0,0,1-2.94,2.45,10,10,0,0,1-4.3.89,9.59,9.59,0,0,1-5.85-1.63,7.62,7.62,0,0,1-2.84-4.86l2.69-.42c.65,3.07,2.65,4.6,6,4.6a7.35,7.35,0,0,0,2.94-.54,4.32,4.32,0,0,0,1.9-1.51,3.71,3.71,0,0,0,.67-2.19,3.35,3.35,0,0,0-.66-2.16A4.5,4.5,0,0,0,446,419a24.89,24.89,0,0,0-3.86-.95,10.92,10.92,0,0,1-5.31-2.13,5.27,5.27,0,0,1-1.75-4.19,5.66,5.66,0,0,1,.93-3.19,6.3,6.3,0,0,1,2.65-2.21,9.32,9.32,0,0,1,4-.81A9.43,9.43,0,0,1,448,406.9a6.66,6.66,0,0,1,2.77,4.08l-2.67.38a4.11,4.11,0,0,0-1.79-2.62A6.62,6.62,0,0,0,442.67,407.82Z"/><path class="c" d="M456.24,401.21v-3.77H459v3.77Zm0,27.3V406H459v22.49Z"/><path class="c" d="M473,406v2.23h-4.24V423a7,7,0,0,0,.25,2.17,1.54,1.54,0,0,0,.76,1,3.52,3.52,0,0,0,1.45.24,6.64,6.64,0,0,0,1.91-.28l.38,2.36a19.23,19.23,0,0,1-2.76.29,5.94,5.94,0,0,1-3-.61,3.06,3.06,0,0,1-1.36-1.88,13.41,13.41,0,0,1-.35-3.5V408.25h-3.22V406H466v-5.38l2.73-1.95V406Z"/><path class="c" d="M486.14,426.73a6.5,6.5,0,0,0,3.94-1.22,6.8,6.8,0,0,0,2.4-3.38l2.69.42a9.37,9.37,0,0,1-3.47,4.83A9.82,9.82,0,0,1,486,429a9.92,9.92,0,0,1-5.37-1.42,9.29,9.29,0,0,1-3.51-4.05,14.29,14.29,0,0,1-1.23-6.12,15.16,15.16,0,0,1,1.24-6.36,9.44,9.44,0,0,1,3.51-4.14,9.72,9.72,0,0,1,5.32-1.44,9.15,9.15,0,0,1,5.56,1.59,9,9,0,0,1,3.17,4.35,18.4,18.4,0,0,1,1,6.33h-17a12.14,12.14,0,0,0,1,4.8,7.13,7.13,0,0,0,2.61,3.09A7,7,0,0,0,486.14,426.73Zm-.27-18.93a6.74,6.74,0,0,0-3.48.91,6.86,6.86,0,0,0-2.47,2.64,10.59,10.59,0,0,0-1.17,4.14h14.07a9.81,9.81,0,0,0-2.14-5.75A6.18,6.18,0,0,0,485.87,407.8Z"/></g></g><path class="c" d="M18.31,338.27a14.57,14.57,0,0,1-.73,4.82,10.72,10.72,0,0,1-2,3.56,8.54,8.54,0,0,1-3,2.22,9,9,0,0,1-3.69.76H1.35V371H0V327.45H8.54a11.74,11.74,0,0,1,3.38.52,8.63,8.63,0,0,1,3.14,1.76A9.27,9.27,0,0,1,17.39,333,12.82,12.82,0,0,1,18.31,338.27Zm-1.35,0a12.35,12.35,0,0,0-.7-4.47,8.46,8.46,0,0,0-1.88-3,7.36,7.36,0,0,0-2.58-1.67A8.29,8.29,0,0,0,9,328.61H1.35v19.72H9.16a7.46,7.46,0,0,0,2.83-.58,7,7,0,0,0,2.51-1.82,9.18,9.18,0,0,0,1.79-3.14A13.7,13.7,0,0,0,17,338.3Z"/><path class="c" d="M26.12,371V327.45H41.79v1.23H27.47v19.11H40.93V349H27.47v20.71H42.22V371Z"/><path class="c" d="M67.78,371,58.63,349H51.74V371H50.39V327.45H58.9a13.23,13.23,0,0,1,3.37.46,8.61,8.61,0,0,1,3.25,1.64A9.32,9.32,0,0,1,68,332.81a12.14,12.14,0,0,1,1,5.25,13.66,13.66,0,0,1-.82,5.07A9.93,9.93,0,0,1,66,346.55a7.87,7.87,0,0,1-2.89,1.87A9.11,9.11,0,0,1,60,349l9.28,22Zm-.06-32.88a11.82,11.82,0,0,0-.77-4.52,7.33,7.33,0,0,0-5-4.42,12.47,12.47,0,0,0-3.38-.46H51.74v19.11h7.31a7.94,7.94,0,0,0,6.45-2.64A10.65,10.65,0,0,0,67.72,338.08Z"/><path class="c" d="M78.78,328.68v19.11h13V349h-13V371H77.42V327.45H92.79v1.23Z"/><path class="c" d="M124.68,349.2a44.66,44.66,0,0,1-.89,9.16,25.58,25.58,0,0,1-2.59,7.19,13.76,13.76,0,0,1-4.11,4.7,10,10,0,0,1-11.12,0,13.79,13.79,0,0,1-4.12-4.7,25.25,25.25,0,0,1-2.58-7.19,43.31,43.31,0,0,1-.89-9.16,46.09,46.09,0,0,1,.83-9.15,24.46,24.46,0,0,1,2.49-7.19,13.38,13.38,0,0,1,4.11-4.7,9.87,9.87,0,0,1,5.72-1.69,9.52,9.52,0,0,1,5.56,1.69,13.76,13.76,0,0,1,4.11,4.7,25.58,25.58,0,0,1,2.59,7.19A44.63,44.63,0,0,1,124.68,349.2Zm-1.36,0a44.11,44.11,0,0,0-.76-8.42,26,26,0,0,0-2.25-6.82,13.17,13.17,0,0,0-3.68-4.57,8.17,8.17,0,0,0-5.1-1.69,8.36,8.36,0,0,0-5.23,1.69,13.17,13.17,0,0,0-3.68,4.57,24.36,24.36,0,0,0-2.18,6.82,50.1,50.1,0,0,0,0,16.81,24.36,24.36,0,0,0,2.18,6.82A13.11,13.11,0,0,0,106.3,369a8.83,8.83,0,0,0,10.39,0,13.34,13.34,0,0,0,3.69-4.61,25.56,25.56,0,0,0,2.25-6.86A45,45,0,0,0,123.32,349.2Z"/><path class="c" d="M151.1,371,141.94,349h-6.88V371h-1.35V327.45h8.51a13.23,13.23,0,0,1,3.37.46,8.51,8.51,0,0,1,3.25,1.66,9.35,9.35,0,0,1,2.45,3.26,12.31,12.31,0,0,1,1,5.25,13.66,13.66,0,0,1-.82,5.07,10,10,0,0,1-2.12,3.35,7.87,7.87,0,0,1-2.89,1.87,9.11,9.11,0,0,1-3.14.59l9.28,22ZM151,338.08a11.82,11.82,0,0,0-.77-4.52,7.33,7.33,0,0,0-5-4.42,12.47,12.47,0,0,0-3.38-.46h-6.88v19.11h7.31a7.94,7.94,0,0,0,6.45-2.64A10.65,10.65,0,0,0,151,338.08Z"/><path class="c" d="M190.24,371V329h-.12L177,371h-1.66l-13.09-42h-.12v42h-1.36V327.45h2.4l13,41.91h.12l13-41.91h2.37V371Z"/><path class="c" d="M217.77,358.55h-15.3L199.15,371H197.8L209,327.46h2.34L222.25,371H220.9Zm-15-1.23h14.69l-7.13-28.94h-.24Z"/><path class="c" d="M248.24,371l-18.31-41.91h-.12V371h-1.35V327.45h2.17l18.25,41.85H249V327.45h1.36V371Z"/><path class="c" d="M278.44,370.46a11.13,11.13,0,0,1-5.31,1.48,10.26,10.26,0,0,1-5.93-1.75,14.16,14.16,0,0,1-4.27-4.8,25.2,25.2,0,0,1-2.61-7.19,41.89,41.89,0,0,1-.89-9,43.2,43.2,0,0,1,.89-9,25.39,25.39,0,0,1,2.61-7.22,13.74,13.74,0,0,1,4.27-4.76,10.4,10.4,0,0,1,5.93-1.72,11,11,0,0,1,5,1.29,10,10,0,0,1,4.21,4.42l-1.11.68a9.69,9.69,0,0,0-3.72-4,9.21,9.21,0,0,0-9.86.49,12.76,12.76,0,0,0-3.84,4.57,25.23,25.23,0,0,0-2.27,6.82,46.26,46.26,0,0,0,0,16.81,25,25,0,0,0,2.3,6.82,13,13,0,0,0,3.87,4.61,9,9,0,0,0,10.2.22,10.93,10.93,0,0,0,3.94-4.55l1.1.67A10.93,10.93,0,0,1,278.44,370.46Z"/><path class="c" d="M289.63,371V327.45h15.7v1.23H291v19.11h13.46V349H291v20.71h14.75V371Z"/><path class="c" d="M337.16,340.29a15.56,15.56,0,0,1-1,5.81,12.47,12.47,0,0,1-2.67,4.15,10.7,10.7,0,0,1-3.79,2.46,12.52,12.52,0,0,1-4.41.8h-5.14V371h-7.26V327.45h12a16,16,0,0,1,4.29.62,10,10,0,0,1,3.95,2.12,11.23,11.23,0,0,1,2.88,4A14.53,14.53,0,0,1,337.16,340.29Zm-7,.1q0-3.5-1.66-5.08a5.84,5.84,0,0,0-4.24-1.59h-4.17v13.76h4.17a5.5,5.5,0,0,0,4.24-1.8A7.51,7.51,0,0,0,330.21,340.39Z"/><path class="c" d="M361.3,371l-6.75-18.56h-4.12V371H343.3V327.45h12.41a16.61,16.61,0,0,1,5,.71,9.72,9.72,0,0,1,3.9,2.24,10.46,10.46,0,0,1,2.55,3.87,15,15,0,0,1,.92,5.59,14,14,0,0,1-.64,4.46,12,12,0,0,1-1.63,3.29,9.4,9.4,0,0,1-2.18,2.18,7.5,7.5,0,0,1-2.37,1.13l7.81,20Zm-.49-30.73a8.21,8.21,0,0,0-.55-3.25,5.21,5.21,0,0,0-1.44-2,5.38,5.38,0,0,0-2-1,8.24,8.24,0,0,0-2.21-.3h-4.18v13.39h4.2a6.13,6.13,0,0,0,4.45-1.69,6.69,6.69,0,0,0,1.73-5.15Z"/><path class="c" d="M374.82,371V327.45H394.3V334H381.89v11.59h11.49v6H381.89v12.84h13V371Z"/><path class="c" d="M422.47,370.46a14.33,14.33,0,0,1-13.39-.12,15.17,15.17,0,0,1-5-4.76,24.22,24.22,0,0,1-3.2-7.22,37.69,37.69,0,0,1,0-18.34,23.62,23.62,0,0,1,3.23-7.25,15.23,15.23,0,0,1,5.07-4.74,13.24,13.24,0,0,1,6.6-1.69,14.81,14.81,0,0,1,6.58,1.39,11.88,11.88,0,0,1,4.61,4l-4.24,5.16a7.64,7.64,0,0,0-6.52-3.62,6.27,6.27,0,0,0-3.87,1.26,9.93,9.93,0,0,0-2.76,3.41,18.5,18.5,0,0,0-1.66,5.07,35.44,35.44,0,0,0,0,12.41,18.85,18.85,0,0,0,1.66,5.07,9.81,9.81,0,0,0,2.79,3.41,6.46,6.46,0,0,0,4,1.26,6.3,6.3,0,0,0,3.71-1.11,9.9,9.9,0,0,0,2.62-2.7l4.24,5A13.64,13.64,0,0,1,422.47,370.46Z"/><path class="c" d="M432.09,371V327.45h7.37V371Z"/><path class="c" d="M465.39,335.87a7.48,7.48,0,0,0-6-2.89,6.18,6.18,0,0,0-2,.34,4.93,4.93,0,0,0-3,3,7.42,7.42,0,0,0-.46,2.76,5.46,5.46,0,0,0,1.66,4.27,19.09,19.09,0,0,0,4.36,2.86c1.07.54,2.15,1.15,3.26,1.85a14.49,14.49,0,0,1,3,2.52,11.79,11.79,0,0,1,3.07,8.29,14.75,14.75,0,0,1-1,5.65,12.58,12.58,0,0,1-2.71,4.15,11,11,0,0,1-4,2.55,13.27,13.27,0,0,1-4.79.86,15.93,15.93,0,0,1-6.7-1.41,13.79,13.79,0,0,1-4.91-3.57l4-5.4a10.19,10.19,0,0,0,3.41,2.7,9.11,9.11,0,0,0,4.09,1,5.17,5.17,0,0,0,3.87-1.59A6.25,6.25,0,0,0,462,359.3a5.74,5.74,0,0,0-1.84-4.49,21.91,21.91,0,0,0-4.67-3.07,28.31,28.31,0,0,1-3.35-1.9,12.59,12.59,0,0,1-2.76-2.49A11.3,11.3,0,0,1,447.5,344a13.76,13.76,0,0,1-.71-4.64,14.29,14.29,0,0,1,1.08-5.81,11.9,11.9,0,0,1,2.83-4,11.21,11.21,0,0,1,4-2.37,13.4,13.4,0,0,1,4.48-.77,15.43,15.43,0,0,1,5.93,1.08,11.28,11.28,0,0,1,4.4,3.17Z"/><path class="c" d="M475.9,371V327.45h7.37V371Z"/><path class="c" d="M521.55,349.14a38.39,38.39,0,0,1-1.07,9.37,22.92,22.92,0,0,1-3.1,7.22,14.71,14.71,0,0,1-5,4.67,13.81,13.81,0,0,1-13.12,0,14.75,14.75,0,0,1-4.92-4.67,22.92,22.92,0,0,1-3.1-7.22,37.44,37.44,0,0,1-1.07-9.37,38.63,38.63,0,0,1,1-9.34,22.69,22.69,0,0,1,3.07-7.19,14.47,14.47,0,0,1,4.95-4.64,14.1,14.1,0,0,1,13.15,0,14.62,14.62,0,0,1,5,4.64,23.32,23.32,0,0,1,3.1,7.19A37.7,37.7,0,0,1,521.55,349.14Zm-7.62,0a35.16,35.16,0,0,0-.52-6.23,19.83,19.83,0,0,0-1.53-5,9.53,9.53,0,0,0-2.52-3.35,5.33,5.33,0,0,0-3.48-1.23,5.39,5.39,0,0,0-3.53,1.23,9.53,9.53,0,0,0-2.52,3.35,19,19,0,0,0-1.5,5,40.12,40.12,0,0,0,0,12.47,19.47,19.47,0,0,0,1.5,5.07,9.64,9.64,0,0,0,2.52,3.38,5.69,5.69,0,0,0,7.07,0,9.64,9.64,0,0,0,2.52-3.38,20,20,0,0,0,1.5-5.07A37.24,37.24,0,0,0,513.93,349.14Z"/><path class="c" d="M547.48,371l-12.35-30.73H535l.12,30.73h-6.64V327.45h8.42l12.23,30.91h.19l-.07-30.91h6.43V371Z"/><circle class="c" cx="259.3" cy="142.15" r="15.2"/><circle class="d" cx="259.3" cy="177.9" r="12.67"/><circle class="e" cx="259.3" cy="208.58" r="10.13"/><circle class="f" cx="259.3" cy="234.2" r="7.6"/><path class="g" d="M230.63,118.65a4.52,4.52,0,0,1,.69.36c1.29.9,1.12,2.51,1.13,3.9,0,1.07,0,2.15,0,3.23,0,2.15,0,4.3,0,6.45q0,6.47,0,12.92c0,8.61.13,27.86-.05,28.42-.61,1.82-15,38.36-15.4,38.36,4.67,0,10.39.15,15.16.15v30.28H205.76c-2.57,6.49-5,12.86-7.62,19.15-2.82,6.8-5.15,13.78-8.23,20.48a16.2,16.2,0,0,1-17.79,9.39c-8.31-1.29-15.51-10.66-12.33-18.94,2.64-6.87,55.93-142.52,57.86-146.14a17.67,17.67,0,0,1,5.31-6.59,9.8,9.8,0,0,1,4.92-1.73A6.6,6.6,0,0,1,230.63,118.65Z"/><polygon class="c" points="381.28 322.61 384.77 322.67 394.93 310.62 388.87 310.27 381.28 322.61"/><path class="f" d="M323.73,144.46h2.9c35.8,0,63.53-32.24,63.53-71.9C390.16,34.22,361.46,0,315.67,0,277,0,243.43,30,243.43,78.67v22.26a15.16,15.16,0,0,0,30.32,0V74.81c0-28.7,18.05-46.43,42.24-46.43,24.83,0,43.85,16.77,43.85,44.18,0,27.08-18.06,43.52-41.92,43.52H299.85a14.16,14.16,0,0,0-14.13,13.61c0,.08-.05.16-.05.23v.35c0,.26,0,.54,0,.8a15,15,0,0,0,1.4,7l2.06,4.42a81,81,0,0,1,12.17,3.83"/><path class="f" d="M299.27,147.71a82.9,82.9,0,0,0-9-2.9"/><path class="f" d="M304.91,226.62l-20.13-87c-2.39-10.33,3-20.74,12.13-23.24h0c9.08-2.5,18.39,3.85,20.78,14.19l20.13,87c2.39,10.34-3,20.74-12.12,23.24h0C316.61,243.3,307.3,237,304.91,226.62Z"/></svg>